G75*
%MOIN*%
%OFA0B0*%
%FSLAX25Y25*%
%IPPOS*%
%LPD*%
%AMOC8*
5,1,8,0,0,1.08239X$1,22.5*
%
%ADD10C,0.01600*%
%ADD11C,0.00000*%
%ADD12C,0.00600*%
%ADD13C,0.00300*%
%ADD14C,0.00800*%
%ADD15C,0.00500*%
D10*
X0001800Y0001800D02*
X0205800Y0001800D01*
X0205800Y0061800D01*
X0202800Y0061800D01*
X0202800Y0088800D01*
X0205800Y0088800D01*
X0202800Y0088800D02*
X0004800Y0088800D01*
X0004800Y0061800D01*
X0001800Y0061800D01*
X0001800Y0001800D01*
X0001800Y0069800D02*
X0017300Y0069800D01*
X0017300Y0084800D01*
X0001800Y0084800D01*
X0190300Y0084800D02*
X0190300Y0069800D01*
X0205800Y0069800D01*
X0205800Y0084800D02*
X0190300Y0084800D01*
D11*
X0065071Y0028800D02*
X0065073Y0028941D01*
X0065079Y0029083D01*
X0065089Y0029224D01*
X0065103Y0029365D01*
X0065121Y0029505D01*
X0065143Y0029645D01*
X0065168Y0029784D01*
X0065198Y0029922D01*
X0065232Y0030059D01*
X0065269Y0030196D01*
X0065310Y0030331D01*
X0065355Y0030465D01*
X0065404Y0030598D01*
X0065457Y0030729D01*
X0065513Y0030859D01*
X0065573Y0030987D01*
X0065636Y0031114D01*
X0065703Y0031238D01*
X0065773Y0031361D01*
X0065847Y0031481D01*
X0065924Y0031600D01*
X0066005Y0031716D01*
X0066089Y0031830D01*
X0066176Y0031942D01*
X0066266Y0032051D01*
X0066359Y0032157D01*
X0066455Y0032261D01*
X0066554Y0032362D01*
X0066656Y0032460D01*
X0066760Y0032556D01*
X0066867Y0032648D01*
X0066977Y0032737D01*
X0067089Y0032824D01*
X0067204Y0032907D01*
X0067320Y0032986D01*
X0067439Y0033063D01*
X0067561Y0033136D01*
X0067684Y0033205D01*
X0067809Y0033271D01*
X0067936Y0033334D01*
X0068064Y0033393D01*
X0068194Y0033448D01*
X0068326Y0033500D01*
X0068459Y0033547D01*
X0068594Y0033591D01*
X0068729Y0033632D01*
X0068866Y0033668D01*
X0069004Y0033701D01*
X0069142Y0033729D01*
X0069281Y0033754D01*
X0069421Y0033775D01*
X0069562Y0033792D01*
X0069702Y0033805D01*
X0069844Y0033814D01*
X0069985Y0033819D01*
X0070126Y0033820D01*
X0070268Y0033817D01*
X0070409Y0033810D01*
X0070550Y0033799D01*
X0070691Y0033784D01*
X0070831Y0033765D01*
X0070970Y0033742D01*
X0071109Y0033716D01*
X0071247Y0033685D01*
X0071385Y0033650D01*
X0071521Y0033612D01*
X0071656Y0033570D01*
X0071789Y0033524D01*
X0071922Y0033474D01*
X0072053Y0033421D01*
X0072182Y0033364D01*
X0072310Y0033303D01*
X0072436Y0033239D01*
X0072560Y0033171D01*
X0072682Y0033100D01*
X0072802Y0033025D01*
X0072920Y0032947D01*
X0073036Y0032865D01*
X0073149Y0032781D01*
X0073260Y0032693D01*
X0073369Y0032602D01*
X0073474Y0032508D01*
X0073578Y0032412D01*
X0073678Y0032312D01*
X0073775Y0032210D01*
X0073870Y0032104D01*
X0073962Y0031997D01*
X0074050Y0031886D01*
X0074136Y0031774D01*
X0074218Y0031658D01*
X0074297Y0031541D01*
X0074372Y0031421D01*
X0074444Y0031300D01*
X0074513Y0031176D01*
X0074578Y0031051D01*
X0074640Y0030923D01*
X0074698Y0030794D01*
X0074752Y0030664D01*
X0074803Y0030532D01*
X0074850Y0030398D01*
X0074893Y0030264D01*
X0074932Y0030128D01*
X0074968Y0029991D01*
X0074999Y0029853D01*
X0075027Y0029714D01*
X0075051Y0029575D01*
X0075071Y0029435D01*
X0075087Y0029294D01*
X0075099Y0029153D01*
X0075107Y0029012D01*
X0075111Y0028871D01*
X0075111Y0028729D01*
X0075107Y0028588D01*
X0075099Y0028447D01*
X0075087Y0028306D01*
X0075071Y0028165D01*
X0075051Y0028025D01*
X0075027Y0027886D01*
X0074999Y0027747D01*
X0074968Y0027609D01*
X0074932Y0027472D01*
X0074893Y0027336D01*
X0074850Y0027202D01*
X0074803Y0027068D01*
X0074752Y0026936D01*
X0074698Y0026806D01*
X0074640Y0026677D01*
X0074578Y0026549D01*
X0074513Y0026424D01*
X0074444Y0026300D01*
X0074372Y0026179D01*
X0074297Y0026059D01*
X0074218Y0025942D01*
X0074136Y0025826D01*
X0074050Y0025714D01*
X0073962Y0025603D01*
X0073870Y0025496D01*
X0073775Y0025390D01*
X0073678Y0025288D01*
X0073578Y0025188D01*
X0073474Y0025092D01*
X0073369Y0024998D01*
X0073260Y0024907D01*
X0073149Y0024819D01*
X0073036Y0024735D01*
X0072920Y0024653D01*
X0072802Y0024575D01*
X0072682Y0024500D01*
X0072560Y0024429D01*
X0072436Y0024361D01*
X0072310Y0024297D01*
X0072182Y0024236D01*
X0072053Y0024179D01*
X0071922Y0024126D01*
X0071789Y0024076D01*
X0071656Y0024030D01*
X0071521Y0023988D01*
X0071385Y0023950D01*
X0071247Y0023915D01*
X0071109Y0023884D01*
X0070970Y0023858D01*
X0070831Y0023835D01*
X0070691Y0023816D01*
X0070550Y0023801D01*
X0070409Y0023790D01*
X0070268Y0023783D01*
X0070126Y0023780D01*
X0069985Y0023781D01*
X0069844Y0023786D01*
X0069702Y0023795D01*
X0069562Y0023808D01*
X0069421Y0023825D01*
X0069281Y0023846D01*
X0069142Y0023871D01*
X0069004Y0023899D01*
X0068866Y0023932D01*
X0068729Y0023968D01*
X0068594Y0024009D01*
X0068459Y0024053D01*
X0068326Y0024100D01*
X0068194Y0024152D01*
X0068064Y0024207D01*
X0067936Y0024266D01*
X0067809Y0024329D01*
X0067684Y0024395D01*
X0067561Y0024464D01*
X0067439Y0024537D01*
X0067320Y0024614D01*
X0067204Y0024693D01*
X0067089Y0024776D01*
X0066977Y0024863D01*
X0066867Y0024952D01*
X0066760Y0025044D01*
X0066656Y0025140D01*
X0066554Y0025238D01*
X0066455Y0025339D01*
X0066359Y0025443D01*
X0066266Y0025549D01*
X0066176Y0025658D01*
X0066089Y0025770D01*
X0066005Y0025884D01*
X0065924Y0026000D01*
X0065847Y0026119D01*
X0065773Y0026239D01*
X0065703Y0026362D01*
X0065636Y0026486D01*
X0065573Y0026613D01*
X0065513Y0026741D01*
X0065457Y0026871D01*
X0065404Y0027002D01*
X0065355Y0027135D01*
X0065310Y0027269D01*
X0065269Y0027404D01*
X0065232Y0027541D01*
X0065198Y0027678D01*
X0065168Y0027816D01*
X0065143Y0027955D01*
X0065121Y0028095D01*
X0065103Y0028235D01*
X0065089Y0028376D01*
X0065079Y0028517D01*
X0065073Y0028659D01*
X0065071Y0028800D01*
X0074391Y0011005D02*
X0007209Y0011005D01*
X0006489Y0028800D02*
X0006491Y0028941D01*
X0006497Y0029083D01*
X0006507Y0029224D01*
X0006521Y0029365D01*
X0006539Y0029505D01*
X0006561Y0029645D01*
X0006586Y0029784D01*
X0006616Y0029922D01*
X0006650Y0030059D01*
X0006687Y0030196D01*
X0006728Y0030331D01*
X0006773Y0030465D01*
X0006822Y0030598D01*
X0006875Y0030729D01*
X0006931Y0030859D01*
X0006991Y0030987D01*
X0007054Y0031114D01*
X0007121Y0031238D01*
X0007191Y0031361D01*
X0007265Y0031481D01*
X0007342Y0031600D01*
X0007423Y0031716D01*
X0007507Y0031830D01*
X0007594Y0031942D01*
X0007684Y0032051D01*
X0007777Y0032157D01*
X0007873Y0032261D01*
X0007972Y0032362D01*
X0008074Y0032460D01*
X0008178Y0032556D01*
X0008285Y0032648D01*
X0008395Y0032737D01*
X0008507Y0032824D01*
X0008622Y0032907D01*
X0008738Y0032986D01*
X0008857Y0033063D01*
X0008979Y0033136D01*
X0009102Y0033205D01*
X0009227Y0033271D01*
X0009354Y0033334D01*
X0009482Y0033393D01*
X0009612Y0033448D01*
X0009744Y0033500D01*
X0009877Y0033547D01*
X0010012Y0033591D01*
X0010147Y0033632D01*
X0010284Y0033668D01*
X0010422Y0033701D01*
X0010560Y0033729D01*
X0010699Y0033754D01*
X0010839Y0033775D01*
X0010980Y0033792D01*
X0011120Y0033805D01*
X0011262Y0033814D01*
X0011403Y0033819D01*
X0011544Y0033820D01*
X0011686Y0033817D01*
X0011827Y0033810D01*
X0011968Y0033799D01*
X0012109Y0033784D01*
X0012249Y0033765D01*
X0012388Y0033742D01*
X0012527Y0033716D01*
X0012665Y0033685D01*
X0012803Y0033650D01*
X0012939Y0033612D01*
X0013074Y0033570D01*
X0013207Y0033524D01*
X0013340Y0033474D01*
X0013471Y0033421D01*
X0013600Y0033364D01*
X0013728Y0033303D01*
X0013854Y0033239D01*
X0013978Y0033171D01*
X0014100Y0033100D01*
X0014220Y0033025D01*
X0014338Y0032947D01*
X0014454Y0032865D01*
X0014567Y0032781D01*
X0014678Y0032693D01*
X0014787Y0032602D01*
X0014892Y0032508D01*
X0014996Y0032412D01*
X0015096Y0032312D01*
X0015193Y0032210D01*
X0015288Y0032104D01*
X0015380Y0031997D01*
X0015468Y0031886D01*
X0015554Y0031774D01*
X0015636Y0031658D01*
X0015715Y0031541D01*
X0015790Y0031421D01*
X0015862Y0031300D01*
X0015931Y0031176D01*
X0015996Y0031051D01*
X0016058Y0030923D01*
X0016116Y0030794D01*
X0016170Y0030664D01*
X0016221Y0030532D01*
X0016268Y0030398D01*
X0016311Y0030264D01*
X0016350Y0030128D01*
X0016386Y0029991D01*
X0016417Y0029853D01*
X0016445Y0029714D01*
X0016469Y0029575D01*
X0016489Y0029435D01*
X0016505Y0029294D01*
X0016517Y0029153D01*
X0016525Y0029012D01*
X0016529Y0028871D01*
X0016529Y0028729D01*
X0016525Y0028588D01*
X0016517Y0028447D01*
X0016505Y0028306D01*
X0016489Y0028165D01*
X0016469Y0028025D01*
X0016445Y0027886D01*
X0016417Y0027747D01*
X0016386Y0027609D01*
X0016350Y0027472D01*
X0016311Y0027336D01*
X0016268Y0027202D01*
X0016221Y0027068D01*
X0016170Y0026936D01*
X0016116Y0026806D01*
X0016058Y0026677D01*
X0015996Y0026549D01*
X0015931Y0026424D01*
X0015862Y0026300D01*
X0015790Y0026179D01*
X0015715Y0026059D01*
X0015636Y0025942D01*
X0015554Y0025826D01*
X0015468Y0025714D01*
X0015380Y0025603D01*
X0015288Y0025496D01*
X0015193Y0025390D01*
X0015096Y0025288D01*
X0014996Y0025188D01*
X0014892Y0025092D01*
X0014787Y0024998D01*
X0014678Y0024907D01*
X0014567Y0024819D01*
X0014454Y0024735D01*
X0014338Y0024653D01*
X0014220Y0024575D01*
X0014100Y0024500D01*
X0013978Y0024429D01*
X0013854Y0024361D01*
X0013728Y0024297D01*
X0013600Y0024236D01*
X0013471Y0024179D01*
X0013340Y0024126D01*
X0013207Y0024076D01*
X0013074Y0024030D01*
X0012939Y0023988D01*
X0012803Y0023950D01*
X0012665Y0023915D01*
X0012527Y0023884D01*
X0012388Y0023858D01*
X0012249Y0023835D01*
X0012109Y0023816D01*
X0011968Y0023801D01*
X0011827Y0023790D01*
X0011686Y0023783D01*
X0011544Y0023780D01*
X0011403Y0023781D01*
X0011262Y0023786D01*
X0011120Y0023795D01*
X0010980Y0023808D01*
X0010839Y0023825D01*
X0010699Y0023846D01*
X0010560Y0023871D01*
X0010422Y0023899D01*
X0010284Y0023932D01*
X0010147Y0023968D01*
X0010012Y0024009D01*
X0009877Y0024053D01*
X0009744Y0024100D01*
X0009612Y0024152D01*
X0009482Y0024207D01*
X0009354Y0024266D01*
X0009227Y0024329D01*
X0009102Y0024395D01*
X0008979Y0024464D01*
X0008857Y0024537D01*
X0008738Y0024614D01*
X0008622Y0024693D01*
X0008507Y0024776D01*
X0008395Y0024863D01*
X0008285Y0024952D01*
X0008178Y0025044D01*
X0008074Y0025140D01*
X0007972Y0025238D01*
X0007873Y0025339D01*
X0007777Y0025443D01*
X0007684Y0025549D01*
X0007594Y0025658D01*
X0007507Y0025770D01*
X0007423Y0025884D01*
X0007342Y0026000D01*
X0007265Y0026119D01*
X0007191Y0026239D01*
X0007121Y0026362D01*
X0007054Y0026486D01*
X0006991Y0026613D01*
X0006931Y0026741D01*
X0006875Y0026871D01*
X0006822Y0027002D01*
X0006773Y0027135D01*
X0006728Y0027269D01*
X0006687Y0027404D01*
X0006650Y0027541D01*
X0006616Y0027678D01*
X0006586Y0027816D01*
X0006561Y0027955D01*
X0006539Y0028095D01*
X0006521Y0028235D01*
X0006507Y0028376D01*
X0006497Y0028517D01*
X0006491Y0028659D01*
X0006489Y0028800D01*
X0048250Y0074300D02*
X0048252Y0074438D01*
X0048258Y0074575D01*
X0048268Y0074712D01*
X0048282Y0074849D01*
X0048300Y0074985D01*
X0048322Y0075121D01*
X0048347Y0075256D01*
X0048377Y0075390D01*
X0048410Y0075524D01*
X0048448Y0075656D01*
X0048489Y0075787D01*
X0048534Y0075917D01*
X0048583Y0076046D01*
X0048635Y0076173D01*
X0048691Y0076299D01*
X0048751Y0076423D01*
X0048814Y0076545D01*
X0048881Y0076665D01*
X0048951Y0076783D01*
X0049024Y0076900D01*
X0049101Y0077014D01*
X0049182Y0077125D01*
X0049265Y0077235D01*
X0049351Y0077342D01*
X0049441Y0077446D01*
X0049534Y0077548D01*
X0049629Y0077647D01*
X0049727Y0077743D01*
X0049828Y0077836D01*
X0049932Y0077926D01*
X0050038Y0078014D01*
X0050147Y0078098D01*
X0050258Y0078179D01*
X0050372Y0078257D01*
X0050487Y0078331D01*
X0050605Y0078402D01*
X0050725Y0078470D01*
X0050847Y0078534D01*
X0050970Y0078594D01*
X0051095Y0078651D01*
X0051222Y0078705D01*
X0051350Y0078754D01*
X0051480Y0078800D01*
X0051611Y0078842D01*
X0051743Y0078881D01*
X0051876Y0078915D01*
X0052010Y0078946D01*
X0052145Y0078972D01*
X0052281Y0078995D01*
X0052417Y0079014D01*
X0052554Y0079029D01*
X0052691Y0079040D01*
X0052828Y0079047D01*
X0052966Y0079050D01*
X0053103Y0079049D01*
X0053241Y0079044D01*
X0053378Y0079035D01*
X0053515Y0079022D01*
X0053651Y0079005D01*
X0053787Y0078984D01*
X0053922Y0078960D01*
X0054057Y0078931D01*
X0054191Y0078898D01*
X0054323Y0078862D01*
X0054455Y0078822D01*
X0054585Y0078778D01*
X0054714Y0078730D01*
X0054842Y0078678D01*
X0054968Y0078623D01*
X0055092Y0078565D01*
X0055214Y0078502D01*
X0055335Y0078436D01*
X0055454Y0078367D01*
X0055571Y0078294D01*
X0055685Y0078218D01*
X0055798Y0078139D01*
X0055908Y0078056D01*
X0056015Y0077970D01*
X0056120Y0077882D01*
X0056222Y0077790D01*
X0056322Y0077695D01*
X0056419Y0077597D01*
X0056513Y0077497D01*
X0056604Y0077394D01*
X0056692Y0077288D01*
X0056777Y0077180D01*
X0056859Y0077070D01*
X0056938Y0076957D01*
X0057013Y0076842D01*
X0057085Y0076724D01*
X0057153Y0076605D01*
X0057218Y0076484D01*
X0057280Y0076361D01*
X0057337Y0076236D01*
X0057392Y0076110D01*
X0057442Y0075982D01*
X0057489Y0075853D01*
X0057532Y0075722D01*
X0057571Y0075590D01*
X0057607Y0075457D01*
X0057638Y0075323D01*
X0057666Y0075189D01*
X0057690Y0075053D01*
X0057710Y0074917D01*
X0057726Y0074781D01*
X0057738Y0074644D01*
X0057746Y0074506D01*
X0057750Y0074369D01*
X0057750Y0074231D01*
X0057746Y0074094D01*
X0057738Y0073956D01*
X0057726Y0073819D01*
X0057710Y0073683D01*
X0057690Y0073547D01*
X0057666Y0073411D01*
X0057638Y0073277D01*
X0057607Y0073143D01*
X0057571Y0073010D01*
X0057532Y0072878D01*
X0057489Y0072747D01*
X0057442Y0072618D01*
X0057392Y0072490D01*
X0057337Y0072364D01*
X0057280Y0072239D01*
X0057218Y0072116D01*
X0057153Y0071995D01*
X0057085Y0071876D01*
X0057013Y0071758D01*
X0056938Y0071643D01*
X0056859Y0071530D01*
X0056777Y0071420D01*
X0056692Y0071312D01*
X0056604Y0071206D01*
X0056513Y0071103D01*
X0056419Y0071003D01*
X0056322Y0070905D01*
X0056222Y0070810D01*
X0056120Y0070718D01*
X0056015Y0070630D01*
X0055908Y0070544D01*
X0055798Y0070461D01*
X0055685Y0070382D01*
X0055571Y0070306D01*
X0055454Y0070233D01*
X0055335Y0070164D01*
X0055214Y0070098D01*
X0055092Y0070035D01*
X0054968Y0069977D01*
X0054842Y0069922D01*
X0054714Y0069870D01*
X0054585Y0069822D01*
X0054455Y0069778D01*
X0054323Y0069738D01*
X0054191Y0069702D01*
X0054057Y0069669D01*
X0053922Y0069640D01*
X0053787Y0069616D01*
X0053651Y0069595D01*
X0053515Y0069578D01*
X0053378Y0069565D01*
X0053241Y0069556D01*
X0053103Y0069551D01*
X0052966Y0069550D01*
X0052828Y0069553D01*
X0052691Y0069560D01*
X0052554Y0069571D01*
X0052417Y0069586D01*
X0052281Y0069605D01*
X0052145Y0069628D01*
X0052010Y0069654D01*
X0051876Y0069685D01*
X0051743Y0069719D01*
X0051611Y0069758D01*
X0051480Y0069800D01*
X0051350Y0069846D01*
X0051222Y0069895D01*
X0051095Y0069949D01*
X0050970Y0070006D01*
X0050847Y0070066D01*
X0050725Y0070130D01*
X0050605Y0070198D01*
X0050487Y0070269D01*
X0050372Y0070343D01*
X0050258Y0070421D01*
X0050147Y0070502D01*
X0050038Y0070586D01*
X0049932Y0070674D01*
X0049828Y0070764D01*
X0049727Y0070857D01*
X0049629Y0070953D01*
X0049534Y0071052D01*
X0049441Y0071154D01*
X0049351Y0071258D01*
X0049265Y0071365D01*
X0049182Y0071475D01*
X0049101Y0071586D01*
X0049024Y0071700D01*
X0048951Y0071817D01*
X0048881Y0071935D01*
X0048814Y0072055D01*
X0048751Y0072177D01*
X0048691Y0072301D01*
X0048635Y0072427D01*
X0048583Y0072554D01*
X0048534Y0072683D01*
X0048489Y0072813D01*
X0048448Y0072944D01*
X0048410Y0073076D01*
X0048377Y0073210D01*
X0048347Y0073344D01*
X0048322Y0073479D01*
X0048300Y0073615D01*
X0048282Y0073751D01*
X0048268Y0073888D01*
X0048258Y0074025D01*
X0048252Y0074162D01*
X0048250Y0074300D01*
X0191600Y0018800D02*
X0191602Y0018941D01*
X0191608Y0019082D01*
X0191618Y0019222D01*
X0191632Y0019362D01*
X0191650Y0019502D01*
X0191671Y0019641D01*
X0191697Y0019780D01*
X0191726Y0019918D01*
X0191760Y0020054D01*
X0191797Y0020190D01*
X0191838Y0020325D01*
X0191883Y0020459D01*
X0191932Y0020591D01*
X0191984Y0020722D01*
X0192040Y0020851D01*
X0192100Y0020978D01*
X0192163Y0021104D01*
X0192229Y0021228D01*
X0192300Y0021351D01*
X0192373Y0021471D01*
X0192450Y0021589D01*
X0192530Y0021705D01*
X0192614Y0021818D01*
X0192700Y0021929D01*
X0192790Y0022038D01*
X0192883Y0022144D01*
X0192978Y0022247D01*
X0193077Y0022348D01*
X0193178Y0022446D01*
X0193282Y0022541D01*
X0193389Y0022633D01*
X0193498Y0022722D01*
X0193610Y0022807D01*
X0193724Y0022890D01*
X0193840Y0022970D01*
X0193959Y0023046D01*
X0194080Y0023118D01*
X0194202Y0023188D01*
X0194327Y0023253D01*
X0194453Y0023316D01*
X0194581Y0023374D01*
X0194711Y0023429D01*
X0194842Y0023481D01*
X0194975Y0023528D01*
X0195109Y0023572D01*
X0195244Y0023613D01*
X0195380Y0023649D01*
X0195517Y0023681D01*
X0195655Y0023710D01*
X0195793Y0023735D01*
X0195933Y0023755D01*
X0196073Y0023772D01*
X0196213Y0023785D01*
X0196354Y0023794D01*
X0196494Y0023799D01*
X0196635Y0023800D01*
X0196776Y0023797D01*
X0196917Y0023790D01*
X0197057Y0023779D01*
X0197197Y0023764D01*
X0197337Y0023745D01*
X0197476Y0023723D01*
X0197614Y0023696D01*
X0197752Y0023666D01*
X0197888Y0023631D01*
X0198024Y0023593D01*
X0198158Y0023551D01*
X0198292Y0023505D01*
X0198424Y0023456D01*
X0198554Y0023402D01*
X0198683Y0023345D01*
X0198810Y0023285D01*
X0198936Y0023221D01*
X0199059Y0023153D01*
X0199181Y0023082D01*
X0199301Y0023008D01*
X0199418Y0022930D01*
X0199533Y0022849D01*
X0199646Y0022765D01*
X0199757Y0022678D01*
X0199865Y0022587D01*
X0199970Y0022494D01*
X0200073Y0022397D01*
X0200173Y0022298D01*
X0200270Y0022196D01*
X0200364Y0022091D01*
X0200455Y0021984D01*
X0200543Y0021874D01*
X0200628Y0021762D01*
X0200710Y0021647D01*
X0200789Y0021530D01*
X0200864Y0021411D01*
X0200936Y0021290D01*
X0201004Y0021167D01*
X0201069Y0021042D01*
X0201131Y0020915D01*
X0201188Y0020786D01*
X0201243Y0020656D01*
X0201293Y0020525D01*
X0201340Y0020392D01*
X0201383Y0020258D01*
X0201422Y0020122D01*
X0201457Y0019986D01*
X0201489Y0019849D01*
X0201516Y0019711D01*
X0201540Y0019572D01*
X0201560Y0019432D01*
X0201576Y0019292D01*
X0201588Y0019152D01*
X0201596Y0019011D01*
X0201600Y0018870D01*
X0201600Y0018730D01*
X0201596Y0018589D01*
X0201588Y0018448D01*
X0201576Y0018308D01*
X0201560Y0018168D01*
X0201540Y0018028D01*
X0201516Y0017889D01*
X0201489Y0017751D01*
X0201457Y0017614D01*
X0201422Y0017478D01*
X0201383Y0017342D01*
X0201340Y0017208D01*
X0201293Y0017075D01*
X0201243Y0016944D01*
X0201188Y0016814D01*
X0201131Y0016685D01*
X0201069Y0016558D01*
X0201004Y0016433D01*
X0200936Y0016310D01*
X0200864Y0016189D01*
X0200789Y0016070D01*
X0200710Y0015953D01*
X0200628Y0015838D01*
X0200543Y0015726D01*
X0200455Y0015616D01*
X0200364Y0015509D01*
X0200270Y0015404D01*
X0200173Y0015302D01*
X0200073Y0015203D01*
X0199970Y0015106D01*
X0199865Y0015013D01*
X0199757Y0014922D01*
X0199646Y0014835D01*
X0199533Y0014751D01*
X0199418Y0014670D01*
X0199301Y0014592D01*
X0199181Y0014518D01*
X0199059Y0014447D01*
X0198936Y0014379D01*
X0198810Y0014315D01*
X0198683Y0014255D01*
X0198554Y0014198D01*
X0198424Y0014144D01*
X0198292Y0014095D01*
X0198158Y0014049D01*
X0198024Y0014007D01*
X0197888Y0013969D01*
X0197752Y0013934D01*
X0197614Y0013904D01*
X0197476Y0013877D01*
X0197337Y0013855D01*
X0197197Y0013836D01*
X0197057Y0013821D01*
X0196917Y0013810D01*
X0196776Y0013803D01*
X0196635Y0013800D01*
X0196494Y0013801D01*
X0196354Y0013806D01*
X0196213Y0013815D01*
X0196073Y0013828D01*
X0195933Y0013845D01*
X0195793Y0013865D01*
X0195655Y0013890D01*
X0195517Y0013919D01*
X0195380Y0013951D01*
X0195244Y0013987D01*
X0195109Y0014028D01*
X0194975Y0014072D01*
X0194842Y0014119D01*
X0194711Y0014171D01*
X0194581Y0014226D01*
X0194453Y0014284D01*
X0194327Y0014347D01*
X0194202Y0014412D01*
X0194080Y0014482D01*
X0193959Y0014554D01*
X0193840Y0014630D01*
X0193724Y0014710D01*
X0193610Y0014793D01*
X0193498Y0014878D01*
X0193389Y0014967D01*
X0193282Y0015059D01*
X0193178Y0015154D01*
X0193077Y0015252D01*
X0192978Y0015353D01*
X0192883Y0015456D01*
X0192790Y0015562D01*
X0192700Y0015671D01*
X0192614Y0015782D01*
X0192530Y0015895D01*
X0192450Y0016011D01*
X0192373Y0016129D01*
X0192300Y0016249D01*
X0192229Y0016372D01*
X0192163Y0016496D01*
X0192100Y0016622D01*
X0192040Y0016749D01*
X0191984Y0016878D01*
X0191932Y0017009D01*
X0191883Y0017141D01*
X0191838Y0017275D01*
X0191797Y0017410D01*
X0191760Y0017546D01*
X0191726Y0017682D01*
X0191697Y0017820D01*
X0191671Y0017959D01*
X0191650Y0018098D01*
X0191632Y0018238D01*
X0191618Y0018378D01*
X0191608Y0018518D01*
X0191602Y0018659D01*
X0191600Y0018800D01*
D12*
X0163816Y0019370D02*
X0162748Y0018303D01*
X0163816Y0017235D01*
X0163816Y0016168D01*
X0162748Y0015100D01*
X0160613Y0015100D01*
X0159545Y0016168D01*
X0157370Y0015100D02*
X0155235Y0017235D01*
X0156303Y0017235D02*
X0157370Y0018303D01*
X0157370Y0020438D01*
X0156303Y0021505D01*
X0153100Y0021505D01*
X0153100Y0015100D01*
X0153100Y0017235D02*
X0156303Y0017235D01*
X0161681Y0018303D02*
X0162748Y0018303D01*
X0163816Y0019370D02*
X0163816Y0020438D01*
X0162748Y0021505D01*
X0160613Y0021505D01*
X0159545Y0020438D01*
X0127735Y0037668D02*
X0127735Y0041938D01*
X0125600Y0039803D02*
X0129870Y0039803D01*
X0146100Y0059100D02*
X0146100Y0065505D01*
X0149303Y0065505D01*
X0150370Y0064438D01*
X0150370Y0062303D01*
X0149303Y0061235D01*
X0146100Y0061235D01*
X0148235Y0061235D02*
X0150370Y0059100D01*
X0152545Y0059100D02*
X0156816Y0063370D01*
X0156816Y0064438D01*
X0155748Y0065505D01*
X0153613Y0065505D01*
X0152545Y0064438D01*
X0152545Y0059100D02*
X0156816Y0059100D01*
X0176100Y0071100D02*
X0176100Y0077505D01*
X0179303Y0077505D01*
X0180370Y0076438D01*
X0180370Y0074303D01*
X0179303Y0073235D01*
X0176100Y0073235D01*
X0184681Y0071100D02*
X0184681Y0077505D01*
X0186816Y0077505D02*
X0182545Y0077505D01*
X0185735Y0080668D02*
X0185735Y0084938D01*
X0183600Y0082803D02*
X0187870Y0082803D01*
X0055816Y0059100D02*
X0051545Y0059100D01*
X0053681Y0059100D02*
X0053681Y0065505D01*
X0051545Y0063370D01*
X0049370Y0062303D02*
X0048303Y0061235D01*
X0045100Y0061235D01*
X0047235Y0061235D02*
X0049370Y0059100D01*
X0045100Y0059100D02*
X0045100Y0065505D01*
X0048303Y0065505D01*
X0049370Y0064438D01*
X0049370Y0062303D01*
X0045436Y0074100D02*
X0042233Y0074100D01*
X0042233Y0080505D01*
X0045436Y0080505D01*
X0046504Y0079438D01*
X0046504Y0075168D01*
X0045436Y0074100D01*
X0040058Y0074100D02*
X0035788Y0074100D01*
X0035788Y0080505D01*
X0040058Y0080505D01*
X0037923Y0077303D02*
X0035788Y0077303D01*
X0029342Y0080505D02*
X0029342Y0074100D01*
X0033613Y0074100D01*
X0027167Y0074100D02*
X0025032Y0076235D01*
X0026100Y0076235D02*
X0022897Y0076235D01*
X0026100Y0076235D02*
X0027167Y0077303D01*
X0027167Y0079438D01*
X0026100Y0080505D01*
X0022897Y0080505D01*
X0022897Y0074100D01*
X0020735Y0074100D02*
X0018600Y0074100D01*
X0019668Y0074100D02*
X0019668Y0080505D01*
X0020735Y0080505D02*
X0018600Y0080505D01*
X0017735Y0068938D02*
X0017735Y0064668D01*
X0015600Y0066803D02*
X0019870Y0066803D01*
D13*
X0196947Y0062726D02*
X0196947Y0060257D01*
X0198798Y0060257D01*
X0198181Y0061491D01*
X0198181Y0062108D01*
X0198798Y0062726D01*
X0200033Y0062726D01*
X0200650Y0062108D01*
X0200650Y0060874D01*
X0200033Y0060257D01*
X0200033Y0059032D02*
X0200650Y0059032D01*
X0200650Y0058415D01*
X0200033Y0058415D01*
X0200033Y0059032D01*
X0200650Y0057201D02*
X0200650Y0054732D01*
X0198181Y0057201D01*
X0197564Y0057201D01*
X0196947Y0056584D01*
X0196947Y0055349D01*
X0197564Y0054732D01*
X0198181Y0053518D02*
X0200650Y0052283D01*
X0198181Y0051049D01*
X0201267Y0049834D02*
X0201267Y0047366D01*
X0200650Y0046151D02*
X0196947Y0046151D01*
X0196947Y0043683D02*
X0200650Y0043683D01*
X0199416Y0044917D01*
X0200650Y0046151D01*
X0200650Y0042468D02*
X0199416Y0041234D01*
X0199416Y0041851D02*
X0198798Y0042468D01*
X0197564Y0042468D01*
X0196947Y0041851D01*
X0196947Y0039999D01*
X0200650Y0039999D01*
X0199416Y0039999D02*
X0199416Y0041851D01*
X0201267Y0038785D02*
X0201267Y0036316D01*
X0200650Y0035102D02*
X0199416Y0033868D01*
X0199416Y0034485D02*
X0198798Y0035102D01*
X0197564Y0035102D01*
X0196947Y0034485D01*
X0196947Y0032633D01*
X0200650Y0032633D01*
X0199416Y0032633D02*
X0199416Y0034485D01*
X0200033Y0031419D02*
X0197564Y0031419D01*
X0196947Y0030802D01*
X0196947Y0028950D01*
X0200650Y0028950D01*
X0200650Y0030802D01*
X0200033Y0031419D01*
D14*
X0152300Y0037300D02*
X0152300Y0042300D01*
X0149800Y0044800D01*
X0144800Y0044800D01*
X0142300Y0042300D01*
X0139800Y0044800D01*
X0134800Y0044800D01*
X0132300Y0042300D01*
X0132300Y0037300D01*
X0134800Y0034800D01*
X0139800Y0034800D01*
X0142300Y0037300D01*
X0144800Y0034800D01*
X0149800Y0034800D01*
X0152300Y0037300D01*
X0189800Y0069800D02*
X0192300Y0067300D01*
X0197300Y0067300D01*
X0199800Y0069800D01*
X0199800Y0074800D01*
X0197300Y0077300D01*
X0199800Y0079800D01*
X0199800Y0084800D01*
X0197300Y0087300D01*
X0192300Y0087300D01*
X0189800Y0084800D01*
X0189800Y0079800D01*
X0192300Y0077300D01*
X0189800Y0074800D01*
X0189800Y0069800D01*
X0073280Y0059804D02*
X0073280Y0053800D01*
X0073280Y0059804D02*
X0008320Y0059804D01*
X0008320Y0053800D01*
X0008320Y0041800D02*
X0008320Y0003111D01*
X0073280Y0003111D01*
X0073280Y0041800D01*
X0017800Y0069800D02*
X0015300Y0067300D01*
X0010300Y0067300D01*
X0007800Y0069800D01*
X0007800Y0074800D01*
X0010300Y0077300D01*
X0007800Y0079800D01*
X0007800Y0084800D01*
X0010300Y0087300D01*
X0015300Y0087300D01*
X0017800Y0084800D01*
X0017800Y0079800D01*
X0015300Y0077300D01*
X0017800Y0074800D01*
X0017800Y0069800D01*
D15*
X0132250Y0051754D02*
X0132250Y0047250D01*
X0135253Y0047250D01*
X0136854Y0047250D02*
X0139856Y0047250D01*
X0141458Y0047250D02*
X0143710Y0047250D01*
X0144460Y0048001D01*
X0144460Y0051003D01*
X0143710Y0051754D01*
X0141458Y0051754D01*
X0141458Y0047250D01*
X0138355Y0049502D02*
X0136854Y0049502D01*
X0136854Y0051754D02*
X0136854Y0047250D01*
X0136854Y0051754D02*
X0139856Y0051754D01*
X0146062Y0050253D02*
X0147563Y0051754D01*
X0147563Y0047250D01*
X0146062Y0047250D02*
X0149064Y0047250D01*
M02*
