%
M48
M72
T01C0.03543
T02C0.04000
T03C0.06299
T04C0.09500
T05C0.10000
T06C0.10039
%
T01
X50839Y37855
X42808Y37855
X34776Y37855
X26745Y37855
X30761Y47855
X38792Y47855
X46824Y47855
X54855Y47855
T02
X194800Y72300
X194800Y82300
X12800Y72300
X12800Y82300
X137300Y39800
X147300Y39800
T03
X72788Y47855
X8812Y47855
T04
X53000Y74300
T05
X196600Y18800
T06
X70091Y28800
X11509Y28800
M30
